<mxfile host="app.diagrams.net" modified="2022-05-21T17:34:18.480Z" agent="5.0 (Windows NT 10.0; Win64; x64) AppleWebKit/537.36 (KHTML, like Gecko) Chrome/101.0.4951.67 Safari/537.36" etag="ZSequJZx2ztqnJ8Snxpt" version="18.0.8" type="github">
  <diagram id="y9jcQ4mQ0gFcE9R2Qf6j" name="Page-1">
    <mxGraphModel dx="2881" dy="2189" grid="1" gridSize="10" guides="1" tooltips="1" connect="1" arrows="1" fold="1" page="1" pageScale="1" pageWidth="850" pageHeight="1100" math="0" shadow="0">
      <root>
        <mxCell id="0" />
        <mxCell id="1" parent="0" />
        <mxCell id="IGC7cP5TgzlPBevFt7c1-8" value="Основное меню" style="swimlane;fontStyle=1;childLayout=stackLayout;horizontal=1;startSize=26;horizontalStack=0;resizeParent=1;resizeParentMax=0;resizeLast=0;collapsible=1;marginBottom=0;rounded=0;sketch=0;fontSize=20;fillColor=#ffcd28;gradientColor=#ffa500;strokeColor=#d79b00;" parent="1" vertex="1">
          <mxGeometry x="240" y="40" width="260" height="134" as="geometry" />
        </mxCell>
        <mxCell id="IGC7cP5TgzlPBevFt7c1-11" value=" #1 База книг" style="text;strokeColor=#432D57;fillColor=#76608a;align=left;verticalAlign=top;spacingLeft=4;spacingRight=4;overflow=hidden;rotatable=0;points=[[0,0.5],[1,0.5]];portConstraint=eastwest;rounded=0;sketch=0;fontSize=17;fontFamily=Times New Roman;fontColor=#ffffff;" parent="IGC7cP5TgzlPBevFt7c1-8" vertex="1">
          <mxGeometry y="26" width="260" height="34" as="geometry" />
        </mxCell>
        <mxCell id="IGC7cP5TgzlPBevFt7c1-12" value=" #2 База читателей" style="text;strokeColor=#432D57;fillColor=#76608a;align=left;verticalAlign=top;spacingLeft=4;spacingRight=4;overflow=hidden;rotatable=0;points=[[0,0.5],[1,0.5]];portConstraint=eastwest;rounded=0;sketch=0;fontSize=17;fontFamily=Times New Roman;fontColor=#ffffff;" parent="IGC7cP5TgzlPBevFt7c1-8" vertex="1">
          <mxGeometry y="60" width="260" height="34" as="geometry" />
        </mxCell>
        <mxCell id="IGC7cP5TgzlPBevFt7c1-21" value=" #0 Выход" style="text;align=left;verticalAlign=top;spacingLeft=4;spacingRight=4;overflow=hidden;rotatable=0;points=[[0,0.5],[1,0.5]];portConstraint=eastwest;rounded=0;sketch=0;fontSize=17;fontFamily=Times New Roman;strokeWidth=1;shadow=0;glass=0;fillColor=#76608a;gradientDirection=east;strokeColor=#432D57;fontColor=#ffffff;" parent="IGC7cP5TgzlPBevFt7c1-8" vertex="1">
          <mxGeometry y="94" width="260" height="40" as="geometry" />
        </mxCell>
        <mxCell id="IGC7cP5TgzlPBevFt7c1-24" value="База Книг" style="swimlane;fontStyle=1;align=center;verticalAlign=top;childLayout=stackLayout;horizontal=1;startSize=26;horizontalStack=0;resizeParent=1;resizeParentMax=0;resizeLast=0;collapsible=1;marginBottom=0;rounded=0;shadow=0;glass=0;sketch=0;fontFamily=Times New Roman;fontSize=17;strokeColor=default;strokeWidth=1;fillColor=default;gradientColor=none;gradientDirection=east;" parent="1" vertex="1">
          <mxGeometry x="-170" y="40" width="250" height="296" as="geometry" />
        </mxCell>
        <mxCell id="IGC7cP5TgzlPBevFt7c1-25" value="#1 Вывод базы на экран" style="text;strokeColor=#432D57;fillColor=#76608a;align=left;verticalAlign=middle;spacingLeft=4;spacingRight=4;overflow=hidden;rotatable=0;points=[[0,0.5],[1,0.5]];portConstraint=eastwest;rounded=0;shadow=0;glass=0;sketch=0;fontFamily=Times New Roman;fontSize=17;labelPosition=center;verticalLabelPosition=middle;fontColor=#ffffff;" parent="IGC7cP5TgzlPBevFt7c1-24" vertex="1">
          <mxGeometry y="26" width="250" height="34" as="geometry" />
        </mxCell>
        <mxCell id="IGC7cP5TgzlPBevFt7c1-38" value="#2 Поиск книги" style="text;strokeColor=#432D57;fillColor=#76608a;align=left;verticalAlign=middle;spacingLeft=4;spacingRight=4;overflow=hidden;rotatable=0;points=[[0,0.5],[1,0.5]];portConstraint=eastwest;rounded=0;shadow=0;glass=0;sketch=0;fontFamily=Times New Roman;fontSize=17;labelPosition=center;verticalLabelPosition=middle;fontColor=#ffffff;" parent="IGC7cP5TgzlPBevFt7c1-24" vertex="1">
          <mxGeometry y="60" width="250" height="34" as="geometry" />
        </mxCell>
        <mxCell id="IGC7cP5TgzlPBevFt7c1-32" value="#3 Сортировка базы" style="text;strokeColor=#432D57;fillColor=#76608a;align=left;verticalAlign=middle;spacingLeft=4;spacingRight=4;overflow=hidden;rotatable=0;points=[[0,0.5],[1,0.5]];portConstraint=eastwest;rounded=0;shadow=0;glass=0;sketch=0;fontFamily=Times New Roman;fontSize=17;labelPosition=center;verticalLabelPosition=middle;fontColor=#ffffff;" parent="IGC7cP5TgzlPBevFt7c1-24" vertex="1">
          <mxGeometry y="94" width="250" height="34" as="geometry" />
        </mxCell>
        <mxCell id="IGC7cP5TgzlPBevFt7c1-33" value="#4 Добавление книги" style="text;align=left;verticalAlign=top;spacingLeft=4;spacingRight=4;overflow=hidden;rotatable=0;points=[[0,0.5],[1,0.5]];portConstraint=eastwest;rounded=0;shadow=0;glass=0;sketch=0;fontFamily=Times New Roman;fontSize=17;labelPosition=center;verticalLabelPosition=middle;fillColor=#76608a;fontColor=#ffffff;strokeColor=#432D57;" parent="IGC7cP5TgzlPBevFt7c1-24" vertex="1">
          <mxGeometry y="128" width="250" height="32" as="geometry" />
        </mxCell>
        <mxCell id="IGC7cP5TgzlPBevFt7c1-34" value="#5 Редактирование информации&#xa;по книге" style="text;strokeColor=#432D57;fillColor=#76608a;align=left;verticalAlign=top;spacingLeft=4;spacingRight=4;overflow=hidden;rotatable=0;points=[[0,0.5],[1,0.5]];portConstraint=eastwest;rounded=0;shadow=0;glass=0;sketch=0;fontFamily=Times New Roman;fontSize=17;labelPosition=center;verticalLabelPosition=middle;fontColor=#ffffff;" parent="IGC7cP5TgzlPBevFt7c1-24" vertex="1">
          <mxGeometry y="160" width="250" height="46" as="geometry" />
        </mxCell>
        <mxCell id="IGC7cP5TgzlPBevFt7c1-35" value="#6 Удаление книги" style="text;strokeColor=#432D57;fillColor=#76608a;align=left;verticalAlign=top;spacingLeft=4;spacingRight=4;overflow=hidden;rotatable=0;points=[[0,0.5],[1,0.5]];portConstraint=eastwest;rounded=0;shadow=0;glass=0;sketch=0;fontFamily=Times New Roman;fontSize=17;labelPosition=center;verticalLabelPosition=middle;fontColor=#ffffff;" parent="IGC7cP5TgzlPBevFt7c1-24" vertex="1">
          <mxGeometry y="206" width="250" height="30" as="geometry" />
        </mxCell>
        <mxCell id="IGC7cP5TgzlPBevFt7c1-36" value="#7 Менеджмент книг" style="text;strokeColor=#432D57;fillColor=#76608a;align=left;verticalAlign=top;spacingLeft=4;spacingRight=4;overflow=hidden;rotatable=0;points=[[0,0.5],[1,0.5]];portConstraint=eastwest;rounded=0;shadow=0;glass=0;sketch=0;fontFamily=Times New Roman;fontSize=17;labelPosition=center;verticalLabelPosition=middle;fontColor=#ffffff;" parent="IGC7cP5TgzlPBevFt7c1-24" vertex="1">
          <mxGeometry y="236" width="250" height="30" as="geometry" />
        </mxCell>
        <mxCell id="IGC7cP5TgzlPBevFt7c1-37" value="#0 Назад в &quot;Основное меню&quot;" style="text;strokeColor=#432D57;fillColor=#76608a;align=left;verticalAlign=top;spacingLeft=4;spacingRight=4;overflow=hidden;rotatable=0;points=[[0,0.5],[1,0.5]];portConstraint=eastwest;rounded=0;shadow=0;glass=0;sketch=0;fontFamily=Times New Roman;fontSize=17;labelPosition=center;verticalLabelPosition=middle;fontColor=#ffffff;" parent="IGC7cP5TgzlPBevFt7c1-24" vertex="1">
          <mxGeometry y="266" width="250" height="30" as="geometry" />
        </mxCell>
        <mxCell id="IGC7cP5TgzlPBevFt7c1-39" value="Вывод базы на экран" style="swimlane;fontStyle=1;align=center;verticalAlign=top;childLayout=stackLayout;horizontal=1;startSize=26;horizontalStack=0;resizeParent=1;resizeParentMax=0;resizeLast=0;collapsible=1;marginBottom=0;rounded=0;shadow=0;glass=0;sketch=0;fontFamily=Times New Roman;fontSize=17;strokeColor=#82b366;strokeWidth=1;fillColor=#d5e8d4;gradientDirection=east;gradientColor=#97d077;" parent="1" vertex="1">
          <mxGeometry x="-595" y="40" width="330" height="82" as="geometry" />
        </mxCell>
        <mxCell id="IGC7cP5TgzlPBevFt7c1-40" value="#1 Вывод самых популярных в своём жанре" style="text;strokeColor=#432D57;fillColor=#76608a;align=left;verticalAlign=top;spacingLeft=4;spacingRight=4;overflow=hidden;rotatable=0;points=[[0,0.5],[1,0.5]];portConstraint=eastwest;rounded=0;shadow=0;glass=0;sketch=0;fontFamily=Times New Roman;fontSize=17;fontColor=#ffffff;" parent="IGC7cP5TgzlPBevFt7c1-39" vertex="1">
          <mxGeometry y="26" width="330" height="26" as="geometry" />
        </mxCell>
        <mxCell id="IGC7cP5TgzlPBevFt7c1-42" value="#0 Назад в &quot;База Книг&quot;" style="text;strokeColor=#432D57;fillColor=#76608a;align=left;verticalAlign=top;spacingLeft=4;spacingRight=4;overflow=hidden;rotatable=0;points=[[0,0.5],[1,0.5]];portConstraint=eastwest;rounded=0;shadow=0;glass=0;sketch=0;fontFamily=Times New Roman;fontSize=17;fontColor=#ffffff;" parent="IGC7cP5TgzlPBevFt7c1-39" vertex="1">
          <mxGeometry y="52" width="330" height="30" as="geometry" />
        </mxCell>
        <mxCell id="IGC7cP5TgzlPBevFt7c1-47" value="Поиск книги" style="swimlane;fontStyle=1;align=center;verticalAlign=top;childLayout=stackLayout;horizontal=1;startSize=26;horizontalStack=0;resizeParent=1;resizeParentMax=0;resizeLast=0;collapsible=1;marginBottom=0;rounded=0;shadow=0;glass=0;sketch=0;fontFamily=Times New Roman;fontSize=17;strokeColor=#82b366;strokeWidth=1;fillColor=#d5e8d4;gradientDirection=east;gradientColor=#97d077;" parent="1" vertex="1">
          <mxGeometry x="-520" y="150" width="180" height="194" as="geometry" />
        </mxCell>
        <mxCell id="IGC7cP5TgzlPBevFt7c1-48" value="#1 По автору" style="text;strokeColor=#432D57;fillColor=#76608a;align=left;verticalAlign=top;spacingLeft=4;spacingRight=4;overflow=hidden;rotatable=0;points=[[0,0.5],[1,0.5]];portConstraint=eastwest;rounded=0;shadow=0;glass=0;sketch=0;fontFamily=Times New Roman;fontSize=17;fontColor=#ffffff;" parent="IGC7cP5TgzlPBevFt7c1-47" vertex="1">
          <mxGeometry y="26" width="180" height="34" as="geometry" />
        </mxCell>
        <mxCell id="IGC7cP5TgzlPBevFt7c1-50" value="#2 По названию" style="text;strokeColor=#432D57;fillColor=#76608a;align=left;verticalAlign=top;spacingLeft=4;spacingRight=4;overflow=hidden;rotatable=0;points=[[0,0.5],[1,0.5]];portConstraint=eastwest;rounded=0;shadow=0;glass=0;sketch=0;fontFamily=Times New Roman;fontSize=17;fontColor=#ffffff;" parent="IGC7cP5TgzlPBevFt7c1-47" vertex="1">
          <mxGeometry y="60" width="180" height="32" as="geometry" />
        </mxCell>
        <mxCell id="IGC7cP5TgzlPBevFt7c1-51" value="#3 По жанру" style="text;strokeColor=#432D57;fillColor=#76608a;align=left;verticalAlign=top;spacingLeft=4;spacingRight=4;overflow=hidden;rotatable=0;points=[[0,0.5],[1,0.5]];portConstraint=eastwest;rounded=0;shadow=0;glass=0;sketch=0;fontFamily=Times New Roman;fontSize=17;fontColor=#ffffff;" parent="IGC7cP5TgzlPBevFt7c1-47" vertex="1">
          <mxGeometry y="92" width="180" height="34" as="geometry" />
        </mxCell>
        <mxCell id="IGC7cP5TgzlPBevFt7c1-52" value="#4 По популярности" style="text;strokeColor=#432D57;fillColor=#76608a;align=left;verticalAlign=top;spacingLeft=4;spacingRight=4;overflow=hidden;rotatable=0;points=[[0,0.5],[1,0.5]];portConstraint=eastwest;rounded=0;shadow=0;glass=0;sketch=0;fontFamily=Times New Roman;fontSize=17;fontColor=#ffffff;" parent="IGC7cP5TgzlPBevFt7c1-47" vertex="1">
          <mxGeometry y="126" width="180" height="34" as="geometry" />
        </mxCell>
        <mxCell id="IGC7cP5TgzlPBevFt7c1-53" value="#0 Назад в &quot;База Книг&quot;" style="text;strokeColor=#432D57;fillColor=#76608a;align=left;verticalAlign=top;spacingLeft=4;spacingRight=4;overflow=hidden;rotatable=0;points=[[0,0.5],[1,0.5]];portConstraint=eastwest;rounded=0;shadow=0;glass=0;sketch=0;fontFamily=Times New Roman;fontSize=17;fontColor=#ffffff;" parent="IGC7cP5TgzlPBevFt7c1-47" vertex="1">
          <mxGeometry y="160" width="180" height="34" as="geometry" />
        </mxCell>
        <mxCell id="IGC7cP5TgzlPBevFt7c1-55" value="Сортировка базы" style="swimlane;fontStyle=1;align=center;verticalAlign=top;childLayout=stackLayout;horizontal=1;startSize=26;horizontalStack=0;resizeParent=1;resizeParentMax=0;resizeLast=0;collapsible=1;marginBottom=0;rounded=0;shadow=0;glass=0;sketch=0;fontFamily=Times New Roman;fontSize=17;strokeColor=#82b366;strokeWidth=1;fillColor=#d5e8d4;gradientDirection=east;gradientColor=#97d077;" parent="1" vertex="1">
          <mxGeometry x="-520" y="360" width="180" height="196" as="geometry" />
        </mxCell>
        <mxCell id="IGC7cP5TgzlPBevFt7c1-56" value="#1 По автору" style="text;strokeColor=#432D57;fillColor=#76608a;align=left;verticalAlign=top;spacingLeft=4;spacingRight=4;overflow=hidden;rotatable=0;points=[[0,0.5],[1,0.5]];portConstraint=eastwest;rounded=0;shadow=0;glass=0;sketch=0;fontFamily=Times New Roman;fontSize=17;fontColor=#ffffff;" parent="IGC7cP5TgzlPBevFt7c1-55" vertex="1">
          <mxGeometry y="26" width="180" height="34" as="geometry" />
        </mxCell>
        <mxCell id="IGC7cP5TgzlPBevFt7c1-59" value="#2 Названию" style="text;strokeColor=#432D57;fillColor=#76608a;align=left;verticalAlign=top;spacingLeft=4;spacingRight=4;overflow=hidden;rotatable=0;points=[[0,0.5],[1,0.5]];portConstraint=eastwest;rounded=0;shadow=0;glass=0;sketch=0;fontFamily=Times New Roman;fontSize=17;fontColor=#ffffff;" parent="IGC7cP5TgzlPBevFt7c1-55" vertex="1">
          <mxGeometry y="60" width="180" height="34" as="geometry" />
        </mxCell>
        <mxCell id="IGC7cP5TgzlPBevFt7c1-60" value="#3 Жанру" style="text;strokeColor=#432D57;fillColor=#76608a;align=left;verticalAlign=top;spacingLeft=4;spacingRight=4;overflow=hidden;rotatable=0;points=[[0,0.5],[1,0.5]];portConstraint=eastwest;rounded=0;shadow=0;glass=0;sketch=0;fontFamily=Times New Roman;fontSize=17;fontColor=#ffffff;" parent="IGC7cP5TgzlPBevFt7c1-55" vertex="1">
          <mxGeometry y="94" width="180" height="34" as="geometry" />
        </mxCell>
        <mxCell id="IGC7cP5TgzlPBevFt7c1-61" value="#4 Популярности" style="text;strokeColor=#432D57;fillColor=#76608a;align=left;verticalAlign=top;spacingLeft=4;spacingRight=4;overflow=hidden;rotatable=0;points=[[0,0.5],[1,0.5]];portConstraint=eastwest;rounded=0;shadow=0;glass=0;sketch=0;fontFamily=Times New Roman;fontSize=17;fontColor=#ffffff;" parent="IGC7cP5TgzlPBevFt7c1-55" vertex="1">
          <mxGeometry y="128" width="180" height="34" as="geometry" />
        </mxCell>
        <mxCell id="IGC7cP5TgzlPBevFt7c1-62" value="#0 Назад в &quot;База Книг&quot;" style="text;strokeColor=#432D57;fillColor=#76608a;align=left;verticalAlign=top;spacingLeft=4;spacingRight=4;overflow=hidden;rotatable=0;points=[[0,0.5],[1,0.5]];portConstraint=eastwest;rounded=0;shadow=0;glass=0;sketch=0;fontFamily=Times New Roman;fontSize=17;fontColor=#ffffff;" parent="IGC7cP5TgzlPBevFt7c1-55" vertex="1">
          <mxGeometry y="162" width="180" height="34" as="geometry" />
        </mxCell>
        <mxCell id="IGC7cP5TgzlPBevFt7c1-68" value="Редактирование книги" style="swimlane;fontStyle=1;align=center;verticalAlign=top;childLayout=stackLayout;horizontal=1;startSize=26;horizontalStack=0;resizeParent=1;resizeParentMax=0;resizeLast=0;collapsible=1;marginBottom=0;rounded=0;shadow=0;glass=0;sketch=0;fontFamily=Times New Roman;fontSize=17;strokeColor=#82b366;strokeWidth=1;fillColor=#d5e8d4;gradientDirection=east;gradientColor=#97d077;" parent="1" vertex="1">
          <mxGeometry x="-525" y="580" width="200" height="170" as="geometry" />
        </mxCell>
        <mxCell id="IGC7cP5TgzlPBevFt7c1-69" value="1# Редактировать всю &#xa;информацию" style="text;strokeColor=#432D57;fillColor=#76608a;align=left;verticalAlign=top;spacingLeft=4;spacingRight=4;overflow=hidden;rotatable=0;points=[[0,0.5],[1,0.5]];portConstraint=eastwest;rounded=0;shadow=0;glass=0;sketch=0;fontFamily=Times New Roman;fontSize=17;fontColor=#ffffff;" parent="IGC7cP5TgzlPBevFt7c1-68" vertex="1">
          <mxGeometry y="26" width="200" height="54" as="geometry" />
        </mxCell>
        <mxCell id="IGC7cP5TgzlPBevFt7c1-72" value="#2 Выбрать информацию&#xa;для редактирования" style="text;strokeColor=#432D57;fillColor=#76608a;align=left;verticalAlign=top;spacingLeft=4;spacingRight=4;overflow=hidden;rotatable=0;points=[[0,0.5],[1,0.5]];portConstraint=eastwest;rounded=0;shadow=0;glass=0;sketch=0;fontFamily=Times New Roman;fontSize=17;fontColor=#ffffff;" parent="IGC7cP5TgzlPBevFt7c1-68" vertex="1">
          <mxGeometry y="80" width="200" height="54" as="geometry" />
        </mxCell>
        <mxCell id="IGC7cP5TgzlPBevFt7c1-73" value="#0 Назад в &quot;База Книг&quot;" style="text;strokeColor=#432D57;fillColor=#76608a;align=left;verticalAlign=top;spacingLeft=4;spacingRight=4;overflow=hidden;rotatable=0;points=[[0,0.5],[1,0.5]];portConstraint=eastwest;rounded=0;shadow=0;glass=0;sketch=0;fontFamily=Times New Roman;fontSize=17;fontColor=#ffffff;" parent="IGC7cP5TgzlPBevFt7c1-68" vertex="1">
          <mxGeometry y="134" width="200" height="36" as="geometry" />
        </mxCell>
        <mxCell id="IGC7cP5TgzlPBevFt7c1-75" value="Менеджмент книг" style="swimlane;fontStyle=1;align=center;verticalAlign=top;childLayout=stackLayout;horizontal=1;startSize=26;horizontalStack=0;resizeParent=1;resizeParentMax=0;resizeLast=0;collapsible=1;marginBottom=0;rounded=0;shadow=0;glass=0;sketch=0;fontFamily=Times New Roman;fontSize=17;strokeColor=#B20000;strokeWidth=1;fillColor=#e51400;gradientDirection=east;fontColor=#ffffff;" parent="1" vertex="1">
          <mxGeometry x="-220" y="500" width="210" height="170" as="geometry" />
        </mxCell>
        <mxCell id="IGC7cP5TgzlPBevFt7c1-76" value="#1 Вывод списка выданных &#xa;книг" style="text;strokeColor=#432D57;fillColor=#76608a;align=left;verticalAlign=top;spacingLeft=4;spacingRight=4;overflow=hidden;rotatable=0;points=[[0,0.5],[1,0.5]];portConstraint=eastwest;rounded=0;shadow=0;glass=0;sketch=0;fontFamily=Times New Roman;fontSize=17;fontColor=#ffffff;" parent="IGC7cP5TgzlPBevFt7c1-75" vertex="1">
          <mxGeometry y="26" width="210" height="54" as="geometry" />
        </mxCell>
        <mxCell id="IGC7cP5TgzlPBevFt7c1-79" value="#2 Выдать книгу" style="text;strokeColor=#432D57;fillColor=#76608a;align=left;verticalAlign=top;spacingLeft=4;spacingRight=4;overflow=hidden;rotatable=0;points=[[0,0.5],[1,0.5]];portConstraint=eastwest;rounded=0;shadow=0;glass=0;sketch=0;fontFamily=Times New Roman;fontSize=17;fontColor=#ffffff;" parent="IGC7cP5TgzlPBevFt7c1-75" vertex="1">
          <mxGeometry y="80" width="210" height="30" as="geometry" />
        </mxCell>
        <mxCell id="IGC7cP5TgzlPBevFt7c1-80" value="#3 Вернуть книгу" style="text;strokeColor=#432D57;fillColor=#76608a;align=left;verticalAlign=top;spacingLeft=4;spacingRight=4;overflow=hidden;rotatable=0;points=[[0,0.5],[1,0.5]];portConstraint=eastwest;rounded=0;shadow=0;glass=0;sketch=0;fontFamily=Times New Roman;fontSize=17;fontColor=#ffffff;" parent="IGC7cP5TgzlPBevFt7c1-75" vertex="1">
          <mxGeometry y="110" width="210" height="30" as="geometry" />
        </mxCell>
        <mxCell id="IGC7cP5TgzlPBevFt7c1-81" value="#0 Назад в &quot;База Книг&quot;" style="text;strokeColor=#432D57;fillColor=#76608a;align=left;verticalAlign=top;spacingLeft=4;spacingRight=4;overflow=hidden;rotatable=0;points=[[0,0.5],[1,0.5]];portConstraint=eastwest;rounded=0;shadow=0;glass=0;sketch=0;fontFamily=Times New Roman;fontSize=17;fontColor=#ffffff;" parent="IGC7cP5TgzlPBevFt7c1-75" vertex="1">
          <mxGeometry y="140" width="210" height="30" as="geometry" />
        </mxCell>
        <mxCell id="IGC7cP5TgzlPBevFt7c1-85" value="" style="edgeStyle=orthogonalEdgeStyle;curved=0;rounded=1;sketch=0;orthogonalLoop=1;jettySize=auto;html=1;fontFamily=Times New Roman;fontSize=17;" parent="1" source="IGC7cP5TgzlPBevFt7c1-83" target="IGC7cP5TgzlPBevFt7c1-84" edge="1">
          <mxGeometry relative="1" as="geometry" />
        </mxCell>
        <mxCell id="IGC7cP5TgzlPBevFt7c1-83" value="" style="html=1;rounded=0;shadow=0;glass=0;sketch=0;fontFamily=Times New Roman;fontSize=17;strokeColor=#82b366;strokeWidth=1;fillColor=#d5e8d4;gradientDirection=east;gradientColor=#97d077;" parent="1" vertex="1">
          <mxGeometry x="175" y="-70" width="70" height="30" as="geometry" />
        </mxCell>
        <mxCell id="IGC7cP5TgzlPBevFt7c1-84" value="Связь данных только с Базой книг" style="html=1;rounded=0;shadow=0;glass=0;sketch=0;fontFamily=Times New Roman;fontSize=17;strokeColor=default;strokeWidth=1;fillColor=default;gradientColor=none;gradientDirection=east;" parent="1" vertex="1">
          <mxGeometry x="275" y="-70" width="290" height="30" as="geometry" />
        </mxCell>
        <mxCell id="IGC7cP5TgzlPBevFt7c1-89" value="" style="edgeStyle=orthogonalEdgeStyle;curved=0;rounded=1;sketch=0;orthogonalLoop=1;jettySize=auto;html=1;fontFamily=Times New Roman;fontSize=17;" parent="1" source="IGC7cP5TgzlPBevFt7c1-86" target="IGC7cP5TgzlPBevFt7c1-88" edge="1">
          <mxGeometry relative="1" as="geometry" />
        </mxCell>
        <mxCell id="IGC7cP5TgzlPBevFt7c1-86" value="" style="html=1;rounded=0;shadow=0;glass=0;sketch=0;fontFamily=Times New Roman;fontSize=17;strokeColor=#6c8ebf;strokeWidth=1;fillColor=#dae8fc;gradientDirection=east;gradientColor=#7ea6e0;" parent="1" vertex="1">
          <mxGeometry x="175" y="-140" width="70" height="30" as="geometry" />
        </mxCell>
        <mxCell id="IGC7cP5TgzlPBevFt7c1-88" value="Связь данных только с Базой читателей" style="html=1;rounded=0;shadow=0;glass=0;sketch=0;fontFamily=Times New Roman;fontSize=17;strokeWidth=1;gradientDirection=east;" parent="1" vertex="1">
          <mxGeometry x="275" y="-140" width="290" height="30" as="geometry" />
        </mxCell>
        <mxCell id="IGC7cP5TgzlPBevFt7c1-90" value="" style="edgeStyle=orthogonalEdgeStyle;curved=0;rounded=1;sketch=0;orthogonalLoop=1;jettySize=auto;html=1;fontFamily=Times New Roman;fontSize=17;" parent="1" source="IGC7cP5TgzlPBevFt7c1-91" target="IGC7cP5TgzlPBevFt7c1-92" edge="1">
          <mxGeometry relative="1" as="geometry" />
        </mxCell>
        <mxCell id="IGC7cP5TgzlPBevFt7c1-91" value="" style="html=1;rounded=0;shadow=0;glass=0;sketch=0;fontFamily=Times New Roman;fontSize=17;strokeColor=#B20000;strokeWidth=1;fillColor=#e51400;gradientDirection=east;fontColor=#ffffff;" parent="1" vertex="1">
          <mxGeometry x="175" y="-220" width="70" height="30" as="geometry" />
        </mxCell>
        <mxCell id="IGC7cP5TgzlPBevFt7c1-92" value="Используются комбинированные данные" style="html=1;rounded=0;shadow=0;glass=0;sketch=0;fontFamily=Times New Roman;fontSize=17;strokeWidth=1;gradientDirection=east;" parent="1" vertex="1">
          <mxGeometry x="275" y="-220" width="305" height="30" as="geometry" />
        </mxCell>
        <mxCell id="IGC7cP5TgzlPBevFt7c1-94" value="Структура &quot;Книги&quot; стостоит из таких данных" style="swimlane;fontStyle=1;childLayout=stackLayout;horizontal=1;startSize=26;fillColor=#d5e8d4;horizontalStack=0;resizeParent=1;resizeParentMax=0;resizeLast=0;collapsible=1;marginBottom=0;rounded=0;shadow=0;glass=0;sketch=0;fontFamily=Times New Roman;fontSize=17;strokeColor=#82b366;strokeWidth=1;swimlaneFillColor=default;gradientColor=#97d077;" parent="1" vertex="1">
          <mxGeometry x="-410" y="-320" width="450" height="312" as="geometry" />
        </mxCell>
        <mxCell id="IGC7cP5TgzlPBevFt7c1-95" value="- Дата издания" style="text;strokeColor=#82b366;fillColor=#d5e8d4;align=left;verticalAlign=top;spacingLeft=4;spacingRight=4;overflow=hidden;rotatable=0;points=[[0,0.5],[1,0.5]];portConstraint=eastwest;rounded=0;shadow=0;glass=0;sketch=0;fontFamily=Times New Roman;fontSize=17;gradientColor=#97d077;" parent="IGC7cP5TgzlPBevFt7c1-94" vertex="1">
          <mxGeometry y="26" width="450" height="26" as="geometry" />
        </mxCell>
        <mxCell id="IGC7cP5TgzlPBevFt7c1-96" value="- Название" style="text;strokeColor=#82b366;fillColor=#d5e8d4;align=left;verticalAlign=top;spacingLeft=4;spacingRight=4;overflow=hidden;rotatable=0;points=[[0,0.5],[1,0.5]];portConstraint=eastwest;rounded=0;shadow=0;glass=0;sketch=0;fontFamily=Times New Roman;fontSize=17;gradientColor=#97d077;" parent="IGC7cP5TgzlPBevFt7c1-94" vertex="1">
          <mxGeometry y="52" width="450" height="26" as="geometry" />
        </mxCell>
        <mxCell id="IGC7cP5TgzlPBevFt7c1-97" value="- Автор" style="text;strokeColor=#82b366;fillColor=#d5e8d4;align=left;verticalAlign=top;spacingLeft=4;spacingRight=4;overflow=hidden;rotatable=0;points=[[0,0.5],[1,0.5]];portConstraint=eastwest;rounded=0;shadow=0;glass=0;sketch=0;fontFamily=Times New Roman;fontSize=17;gradientColor=#97d077;" parent="IGC7cP5TgzlPBevFt7c1-94" vertex="1">
          <mxGeometry y="78" width="450" height="26" as="geometry" />
        </mxCell>
        <mxCell id="IGC7cP5TgzlPBevFt7c1-98" value="- Жанр" style="text;strokeColor=#82b366;fillColor=#d5e8d4;align=left;verticalAlign=top;spacingLeft=4;spacingRight=4;overflow=hidden;rotatable=0;points=[[0,0.5],[1,0.5]];portConstraint=eastwest;rounded=0;shadow=0;glass=0;sketch=0;fontFamily=Times New Roman;fontSize=17;gradientColor=#97d077;" parent="IGC7cP5TgzlPBevFt7c1-94" vertex="1">
          <mxGeometry y="104" width="450" height="26" as="geometry" />
        </mxCell>
        <mxCell id="IGC7cP5TgzlPBevFt7c1-99" value="- Стоимость" style="text;strokeColor=#82b366;fillColor=#d5e8d4;align=left;verticalAlign=top;spacingLeft=4;spacingRight=4;overflow=hidden;rotatable=0;points=[[0,0.5],[1,0.5]];portConstraint=eastwest;rounded=0;shadow=0;glass=0;sketch=0;fontFamily=Times New Roman;fontSize=17;gradientColor=#97d077;" parent="IGC7cP5TgzlPBevFt7c1-94" vertex="1">
          <mxGeometry y="130" width="450" height="26" as="geometry" />
        </mxCell>
        <mxCell id="IGC7cP5TgzlPBevFt7c1-100" value="- Рейтинг" style="text;strokeColor=#82b366;fillColor=#d5e8d4;align=left;verticalAlign=top;spacingLeft=4;spacingRight=4;overflow=hidden;rotatable=0;points=[[0,0.5],[1,0.5]];portConstraint=eastwest;rounded=0;shadow=0;glass=0;sketch=0;fontFamily=Times New Roman;fontSize=17;gradientColor=#97d077;" parent="IGC7cP5TgzlPBevFt7c1-94" vertex="1">
          <mxGeometry y="156" width="450" height="26" as="geometry" />
        </mxCell>
        <mxCell id="IGC7cP5TgzlPBevFt7c1-101" value="- ID номер книги" style="text;strokeColor=#82b366;fillColor=#d5e8d4;align=left;verticalAlign=top;spacingLeft=4;spacingRight=4;overflow=hidden;rotatable=0;points=[[0,0.5],[1,0.5]];portConstraint=eastwest;rounded=0;shadow=0;glass=0;sketch=0;fontFamily=Times New Roman;fontSize=17;gradientColor=#97d077;" parent="IGC7cP5TgzlPBevFt7c1-94" vertex="1">
          <mxGeometry y="182" width="450" height="26" as="geometry" />
        </mxCell>
        <mxCell id="IGC7cP5TgzlPBevFt7c1-102" value="- Время когда книгу выдали +" style="text;strokeColor=#B20000;fillColor=#e51400;align=left;verticalAlign=top;spacingLeft=4;spacingRight=4;overflow=hidden;rotatable=0;points=[[0,0.5],[1,0.5]];portConstraint=eastwest;rounded=0;shadow=0;glass=0;sketch=0;fontFamily=Times New Roman;fontSize=17;fontColor=#ffffff;" parent="IGC7cP5TgzlPBevFt7c1-94" vertex="1">
          <mxGeometry y="208" width="450" height="26" as="geometry" />
        </mxCell>
        <mxCell id="IGC7cP5TgzlPBevFt7c1-103" value="- Время когда книгу вернули =  Сколько она была у читателя" style="text;strokeColor=#B20000;fillColor=#e51400;align=left;verticalAlign=top;spacingLeft=4;spacingRight=4;overflow=hidden;rotatable=0;points=[[0,0.5],[1,0.5]];portConstraint=eastwest;rounded=0;shadow=0;glass=0;sketch=0;fontFamily=Times New Roman;fontSize=17;fontColor=#ffffff;" parent="IGC7cP5TgzlPBevFt7c1-94" vertex="1">
          <mxGeometry y="234" width="450" height="26" as="geometry" />
        </mxCell>
        <mxCell id="IGC7cP5TgzlPBevFt7c1-105" value="- Сколько раз её взяли = популярность" style="text;strokeColor=#82b366;fillColor=#d5e8d4;align=left;verticalAlign=top;spacingLeft=4;spacingRight=4;overflow=hidden;rotatable=0;points=[[0,0.5],[1,0.5]];portConstraint=eastwest;rounded=0;shadow=0;glass=0;sketch=0;fontFamily=Times New Roman;fontSize=17;gradientColor=#97d077;" parent="IGC7cP5TgzlPBevFt7c1-94" vertex="1">
          <mxGeometry y="260" width="450" height="26" as="geometry" />
        </mxCell>
        <mxCell id="A93S3qLj2dooBYVlnmr1-1" value="- ID пользователя который взял книгу" style="text;strokeColor=#B20000;fillColor=#e51400;align=left;verticalAlign=top;spacingLeft=4;spacingRight=4;overflow=hidden;rotatable=0;points=[[0,0.5],[1,0.5]];portConstraint=eastwest;rounded=0;shadow=0;glass=0;sketch=0;fontFamily=Times New Roman;fontSize=17;fontColor=#ffffff;" vertex="1" parent="IGC7cP5TgzlPBevFt7c1-94">
          <mxGeometry y="286" width="450" height="26" as="geometry" />
        </mxCell>
        <mxCell id="IGC7cP5TgzlPBevFt7c1-106" style="edgeStyle=orthogonalEdgeStyle;curved=0;rounded=1;sketch=0;orthogonalLoop=1;jettySize=auto;html=1;entryX=0;entryY=0;entryDx=0;entryDy=0;fontFamily=Times New Roman;fontSize=17;" parent="1" source="IGC7cP5TgzlPBevFt7c1-36" target="IGC7cP5TgzlPBevFt7c1-75" edge="1">
          <mxGeometry relative="1" as="geometry" />
        </mxCell>
        <mxCell id="IGC7cP5TgzlPBevFt7c1-107" style="edgeStyle=orthogonalEdgeStyle;curved=0;rounded=1;sketch=0;orthogonalLoop=1;jettySize=auto;html=1;entryX=1;entryY=0;entryDx=0;entryDy=0;fontFamily=Times New Roman;fontSize=17;" parent="1" source="IGC7cP5TgzlPBevFt7c1-34" target="IGC7cP5TgzlPBevFt7c1-68" edge="1">
          <mxGeometry relative="1" as="geometry">
            <Array as="points">
              <mxPoint x="-260" y="223" />
              <mxPoint x="-260" y="580" />
            </Array>
          </mxGeometry>
        </mxCell>
        <mxCell id="IGC7cP5TgzlPBevFt7c1-108" style="edgeStyle=orthogonalEdgeStyle;curved=0;rounded=1;sketch=0;orthogonalLoop=1;jettySize=auto;html=1;entryX=1;entryY=0;entryDx=0;entryDy=0;fontFamily=Times New Roman;fontSize=17;" parent="1" source="IGC7cP5TgzlPBevFt7c1-32" target="IGC7cP5TgzlPBevFt7c1-55" edge="1">
          <mxGeometry relative="1" as="geometry">
            <Array as="points">
              <mxPoint x="-280" y="160" />
              <mxPoint x="-280" y="360" />
            </Array>
          </mxGeometry>
        </mxCell>
        <mxCell id="IGC7cP5TgzlPBevFt7c1-109" style="edgeStyle=orthogonalEdgeStyle;curved=0;rounded=1;sketch=0;orthogonalLoop=1;jettySize=auto;html=1;entryX=1;entryY=0;entryDx=0;entryDy=0;fontFamily=Times New Roman;fontSize=17;" parent="1" source="IGC7cP5TgzlPBevFt7c1-38" target="IGC7cP5TgzlPBevFt7c1-47" edge="1">
          <mxGeometry relative="1" as="geometry">
            <Array as="points">
              <mxPoint x="-240" y="117" />
              <mxPoint x="-240" y="150" />
            </Array>
          </mxGeometry>
        </mxCell>
        <mxCell id="IGC7cP5TgzlPBevFt7c1-110" style="edgeStyle=orthogonalEdgeStyle;curved=0;rounded=1;sketch=0;orthogonalLoop=1;jettySize=auto;html=1;entryX=1;entryY=0;entryDx=0;entryDy=0;fontFamily=Times New Roman;fontSize=17;" parent="1" source="IGC7cP5TgzlPBevFt7c1-25" target="IGC7cP5TgzlPBevFt7c1-39" edge="1">
          <mxGeometry relative="1" as="geometry">
            <Array as="points">
              <mxPoint x="-217" y="83" />
              <mxPoint x="-217" y="40" />
            </Array>
          </mxGeometry>
        </mxCell>
        <mxCell id="IGC7cP5TgzlPBevFt7c1-111" style="edgeStyle=orthogonalEdgeStyle;curved=0;rounded=1;sketch=0;orthogonalLoop=1;jettySize=auto;html=1;entryX=1;entryY=0;entryDx=0;entryDy=0;fontFamily=Times New Roman;fontSize=17;" parent="1" source="IGC7cP5TgzlPBevFt7c1-11" target="IGC7cP5TgzlPBevFt7c1-24" edge="1">
          <mxGeometry relative="1" as="geometry">
            <Array as="points">
              <mxPoint x="200" y="83" />
              <mxPoint x="200" y="40" />
            </Array>
          </mxGeometry>
        </mxCell>
        <mxCell id="IGC7cP5TgzlPBevFt7c1-112" value="База читателей" style="swimlane;fontStyle=1;align=center;verticalAlign=top;childLayout=stackLayout;horizontal=1;startSize=26;horizontalStack=0;resizeParent=1;resizeParentMax=0;resizeLast=0;collapsible=1;marginBottom=0;rounded=0;shadow=0;glass=0;sketch=0;fontFamily=Times New Roman;fontSize=17;strokeColor=default;strokeWidth=1;fillColor=default;gradientColor=none;gradientDirection=east;" parent="1" vertex="1">
          <mxGeometry x="680" y="38" width="250" height="320" as="geometry" />
        </mxCell>
        <mxCell id="IGC7cP5TgzlPBevFt7c1-113" value="#1 Вывод базы на экран" style="text;strokeColor=#432D57;fillColor=#76608a;align=left;verticalAlign=top;spacingLeft=4;spacingRight=4;overflow=hidden;rotatable=0;points=[[0,0.5],[1,0.5]];portConstraint=eastwest;rounded=0;shadow=0;glass=0;sketch=0;fontFamily=Times New Roman;fontSize=17;fontColor=#ffffff;" parent="IGC7cP5TgzlPBevFt7c1-112" vertex="1">
          <mxGeometry y="26" width="250" height="34" as="geometry" />
        </mxCell>
        <mxCell id="IGC7cP5TgzlPBevFt7c1-116" value="#2 Поиск читателя" style="text;strokeColor=#432D57;fillColor=#76608a;align=left;verticalAlign=top;spacingLeft=4;spacingRight=4;overflow=hidden;rotatable=0;points=[[0,0.5],[1,0.5]];portConstraint=eastwest;rounded=0;shadow=0;glass=0;sketch=0;fontFamily=Times New Roman;fontSize=17;fontColor=#ffffff;" parent="IGC7cP5TgzlPBevFt7c1-112" vertex="1">
          <mxGeometry y="60" width="250" height="34" as="geometry" />
        </mxCell>
        <mxCell id="IGC7cP5TgzlPBevFt7c1-117" value="#3 Сортировка базы" style="text;strokeColor=#432D57;fillColor=#76608a;align=left;verticalAlign=top;spacingLeft=4;spacingRight=4;overflow=hidden;rotatable=0;points=[[0,0.5],[1,0.5]];portConstraint=eastwest;rounded=0;shadow=0;glass=0;sketch=0;fontFamily=Times New Roman;fontSize=17;fontColor=#ffffff;" parent="IGC7cP5TgzlPBevFt7c1-112" vertex="1">
          <mxGeometry y="94" width="250" height="34" as="geometry" />
        </mxCell>
        <mxCell id="IGC7cP5TgzlPBevFt7c1-118" value="#4 Добавление читателя" style="text;strokeColor=#432D57;fillColor=#76608a;align=left;verticalAlign=top;spacingLeft=4;spacingRight=4;overflow=hidden;rotatable=0;points=[[0,0.5],[1,0.5]];portConstraint=eastwest;rounded=0;shadow=0;glass=0;sketch=0;fontFamily=Times New Roman;fontSize=17;fontColor=#ffffff;" parent="IGC7cP5TgzlPBevFt7c1-112" vertex="1">
          <mxGeometry y="128" width="250" height="34" as="geometry" />
        </mxCell>
        <mxCell id="IGC7cP5TgzlPBevFt7c1-119" value="#5 Редактирование информации&#xa;по читателю" style="text;strokeColor=#432D57;fillColor=#76608a;align=left;verticalAlign=top;spacingLeft=4;spacingRight=4;overflow=hidden;rotatable=0;points=[[0,0.5],[1,0.5]];portConstraint=eastwest;rounded=0;shadow=0;glass=0;sketch=0;fontFamily=Times New Roman;fontSize=17;fontColor=#ffffff;" parent="IGC7cP5TgzlPBevFt7c1-112" vertex="1">
          <mxGeometry y="162" width="250" height="48" as="geometry" />
        </mxCell>
        <mxCell id="IGC7cP5TgzlPBevFt7c1-120" value="#6 Удаление читателя" style="text;strokeColor=#432D57;fillColor=#76608a;align=left;verticalAlign=top;spacingLeft=4;spacingRight=4;overflow=hidden;rotatable=0;points=[[0,0.5],[1,0.5]];portConstraint=eastwest;rounded=0;shadow=0;glass=0;sketch=0;fontFamily=Times New Roman;fontSize=17;fontColor=#ffffff;" parent="IGC7cP5TgzlPBevFt7c1-112" vertex="1">
          <mxGeometry y="210" width="250" height="30" as="geometry" />
        </mxCell>
        <mxCell id="IGC7cP5TgzlPBevFt7c1-121" value="#7 Список читателей с просроче-&#xa;нной датой возврата книги" style="text;strokeColor=#B20000;fillColor=#e51400;align=left;verticalAlign=top;spacingLeft=4;spacingRight=4;overflow=hidden;rotatable=0;points=[[0,0.5],[1,0.5]];portConstraint=eastwest;rounded=0;shadow=0;glass=0;sketch=0;fontFamily=Times New Roman;fontSize=17;fontColor=#ffffff;" parent="IGC7cP5TgzlPBevFt7c1-112" vertex="1">
          <mxGeometry y="240" width="250" height="50" as="geometry" />
        </mxCell>
        <mxCell id="IGC7cP5TgzlPBevFt7c1-122" value="#0 Назад в &quot;Основное меню&quot;" style="text;strokeColor=#432D57;fillColor=#76608a;align=left;verticalAlign=top;spacingLeft=4;spacingRight=4;overflow=hidden;rotatable=0;points=[[0,0.5],[1,0.5]];portConstraint=eastwest;rounded=0;shadow=0;glass=0;sketch=0;fontFamily=Times New Roman;fontSize=17;fontColor=#ffffff;" parent="IGC7cP5TgzlPBevFt7c1-112" vertex="1">
          <mxGeometry y="290" width="250" height="30" as="geometry" />
        </mxCell>
        <mxCell id="IGC7cP5TgzlPBevFt7c1-124" style="edgeStyle=orthogonalEdgeStyle;curved=0;rounded=1;sketch=0;orthogonalLoop=1;jettySize=auto;html=1;fontFamily=Times New Roman;fontSize=17;" parent="1" source="IGC7cP5TgzlPBevFt7c1-12" edge="1">
          <mxGeometry relative="1" as="geometry">
            <mxPoint x="680" y="40" as="targetPoint" />
            <Array as="points">
              <mxPoint x="560" y="117" />
              <mxPoint x="560" y="40" />
            </Array>
          </mxGeometry>
        </mxCell>
        <mxCell id="IGC7cP5TgzlPBevFt7c1-125" value="Вывод базы читателей на экран" style="swimlane;fontStyle=1;align=center;verticalAlign=top;childLayout=stackLayout;horizontal=1;startSize=26;horizontalStack=0;resizeParent=1;resizeParentMax=0;resizeLast=0;collapsible=1;marginBottom=0;rounded=0;shadow=0;glass=0;sketch=0;fontFamily=Times New Roman;fontSize=17;strokeColor=#6c8ebf;strokeWidth=1;fillColor=#dae8fc;gradientColor=#7ea6e0;gradientDirection=east;" parent="1" vertex="1">
          <mxGeometry x="1070" y="40" width="310" height="94" as="geometry" />
        </mxCell>
        <mxCell id="IGC7cP5TgzlPBevFt7c1-126" value="#1 Вывод самых активных читателей" style="text;strokeColor=#432D57;fillColor=#76608a;align=left;verticalAlign=top;spacingLeft=4;spacingRight=4;overflow=hidden;rotatable=0;points=[[0,0.5],[1,0.5]];portConstraint=eastwest;rounded=0;shadow=0;glass=0;sketch=0;fontFamily=Times New Roman;fontSize=17;fontColor=#ffffff;" parent="IGC7cP5TgzlPBevFt7c1-125" vertex="1">
          <mxGeometry y="26" width="310" height="34" as="geometry" />
        </mxCell>
        <mxCell id="IGC7cP5TgzlPBevFt7c1-129" value="#0 Назад в &quot;База читателей&quot;" style="text;strokeColor=#432D57;fillColor=#76608a;align=left;verticalAlign=top;spacingLeft=4;spacingRight=4;overflow=hidden;rotatable=0;points=[[0,0.5],[1,0.5]];portConstraint=eastwest;rounded=0;shadow=0;glass=0;sketch=0;fontFamily=Times New Roman;fontSize=17;fontColor=#ffffff;" parent="IGC7cP5TgzlPBevFt7c1-125" vertex="1">
          <mxGeometry y="60" width="310" height="34" as="geometry" />
        </mxCell>
        <mxCell id="IGC7cP5TgzlPBevFt7c1-130" style="edgeStyle=orthogonalEdgeStyle;curved=0;rounded=1;sketch=0;orthogonalLoop=1;jettySize=auto;html=1;entryX=0;entryY=0;entryDx=0;entryDy=0;fontFamily=Times New Roman;fontSize=17;" parent="1" source="IGC7cP5TgzlPBevFt7c1-113" target="IGC7cP5TgzlPBevFt7c1-125" edge="1">
          <mxGeometry relative="1" as="geometry">
            <Array as="points">
              <mxPoint x="970" y="81" />
              <mxPoint x="970" y="40" />
            </Array>
          </mxGeometry>
        </mxCell>
        <mxCell id="IGC7cP5TgzlPBevFt7c1-131" value="Поиск читателей" style="swimlane;fontStyle=1;align=center;verticalAlign=top;childLayout=stackLayout;horizontal=1;startSize=26;horizontalStack=0;resizeParent=1;resizeParentMax=0;resizeLast=0;collapsible=1;marginBottom=0;rounded=0;shadow=0;glass=0;sketch=0;fontFamily=Times New Roman;fontSize=17;strokeColor=#6c8ebf;strokeWidth=1;fillColor=#dae8fc;gradientColor=#7ea6e0;gradientDirection=east;" parent="1" vertex="1">
          <mxGeometry x="1095" y="158" width="260" height="196" as="geometry" />
        </mxCell>
        <mxCell id="IGC7cP5TgzlPBevFt7c1-132" value="#1 По ФИО" style="text;strokeColor=#432D57;fillColor=#76608a;align=left;verticalAlign=top;spacingLeft=4;spacingRight=4;overflow=hidden;rotatable=0;points=[[0,0.5],[1,0.5]];portConstraint=eastwest;rounded=0;shadow=0;glass=0;sketch=0;fontFamily=Times New Roman;fontSize=17;fontColor=#ffffff;" parent="IGC7cP5TgzlPBevFt7c1-131" vertex="1">
          <mxGeometry y="26" width="260" height="34" as="geometry" />
        </mxCell>
        <mxCell id="IGC7cP5TgzlPBevFt7c1-135" value="#2 Количеству прочитанных книг" style="text;strokeColor=#432D57;fillColor=#76608a;align=left;verticalAlign=top;spacingLeft=4;spacingRight=4;overflow=hidden;rotatable=0;points=[[0,0.5],[1,0.5]];portConstraint=eastwest;rounded=0;shadow=0;glass=0;sketch=0;fontFamily=Times New Roman;fontSize=17;fontColor=#ffffff;" parent="IGC7cP5TgzlPBevFt7c1-131" vertex="1">
          <mxGeometry y="60" width="260" height="34" as="geometry" />
        </mxCell>
        <mxCell id="IGC7cP5TgzlPBevFt7c1-136" value="#3 ID" style="text;strokeColor=#432D57;fillColor=#76608a;align=left;verticalAlign=top;spacingLeft=4;spacingRight=4;overflow=hidden;rotatable=0;points=[[0,0.5],[1,0.5]];portConstraint=eastwest;rounded=0;shadow=0;glass=0;sketch=0;fontFamily=Times New Roman;fontSize=17;fontColor=#ffffff;" parent="IGC7cP5TgzlPBevFt7c1-131" vertex="1">
          <mxGeometry y="94" width="260" height="34" as="geometry" />
        </mxCell>
        <mxCell id="IGC7cP5TgzlPBevFt7c1-137" value="#4 Номеру паспорта" style="text;strokeColor=#432D57;fillColor=#76608a;align=left;verticalAlign=top;spacingLeft=4;spacingRight=4;overflow=hidden;rotatable=0;points=[[0,0.5],[1,0.5]];portConstraint=eastwest;rounded=0;shadow=0;glass=0;sketch=0;fontFamily=Times New Roman;fontSize=17;fontColor=#ffffff;" parent="IGC7cP5TgzlPBevFt7c1-131" vertex="1">
          <mxGeometry y="128" width="260" height="34" as="geometry" />
        </mxCell>
        <mxCell id="IGC7cP5TgzlPBevFt7c1-138" value="#0 Назад в &quot;База читателей&quot;" style="text;strokeColor=#432D57;fillColor=#76608a;align=left;verticalAlign=top;spacingLeft=4;spacingRight=4;overflow=hidden;rotatable=0;points=[[0,0.5],[1,0.5]];portConstraint=eastwest;rounded=0;shadow=0;glass=0;sketch=0;fontFamily=Times New Roman;fontSize=17;fontColor=#ffffff;" parent="IGC7cP5TgzlPBevFt7c1-131" vertex="1">
          <mxGeometry y="162" width="260" height="34" as="geometry" />
        </mxCell>
        <mxCell id="IGC7cP5TgzlPBevFt7c1-139" style="edgeStyle=orthogonalEdgeStyle;curved=0;rounded=1;sketch=0;orthogonalLoop=1;jettySize=auto;html=1;entryX=0;entryY=0;entryDx=0;entryDy=0;fontFamily=Times New Roman;fontSize=17;" parent="1" source="IGC7cP5TgzlPBevFt7c1-116" target="IGC7cP5TgzlPBevFt7c1-131" edge="1">
          <mxGeometry relative="1" as="geometry">
            <Array as="points">
              <mxPoint x="1040" y="115" />
              <mxPoint x="1040" y="158" />
            </Array>
          </mxGeometry>
        </mxCell>
        <mxCell id="IGC7cP5TgzlPBevFt7c1-140" value="Сортировка базы" style="swimlane;fontStyle=1;align=center;verticalAlign=top;childLayout=stackLayout;horizontal=1;startSize=26;horizontalStack=0;resizeParent=1;resizeParentMax=0;resizeLast=0;collapsible=1;marginBottom=0;rounded=0;shadow=0;glass=0;sketch=0;fontFamily=Times New Roman;fontSize=17;strokeColor=#6c8ebf;strokeWidth=1;fillColor=#dae8fc;gradientColor=#7ea6e0;gradientDirection=east;" parent="1" vertex="1">
          <mxGeometry x="1095" y="380" width="260" height="196" as="geometry" />
        </mxCell>
        <mxCell id="IGC7cP5TgzlPBevFt7c1-141" value="#1 По ФИО" style="text;strokeColor=#432D57;fillColor=#76608a;align=left;verticalAlign=top;spacingLeft=4;spacingRight=4;overflow=hidden;rotatable=0;points=[[0,0.5],[1,0.5]];portConstraint=eastwest;rounded=0;shadow=0;glass=0;sketch=0;fontFamily=Times New Roman;fontSize=17;fontColor=#ffffff;" parent="IGC7cP5TgzlPBevFt7c1-140" vertex="1">
          <mxGeometry y="26" width="260" height="34" as="geometry" />
        </mxCell>
        <mxCell id="IGC7cP5TgzlPBevFt7c1-144" value="#2 Количеству прочитанных книг" style="text;strokeColor=#432D57;fillColor=#76608a;align=left;verticalAlign=top;spacingLeft=4;spacingRight=4;overflow=hidden;rotatable=0;points=[[0,0.5],[1,0.5]];portConstraint=eastwest;rounded=0;shadow=0;glass=0;sketch=0;fontFamily=Times New Roman;fontSize=17;fontColor=#ffffff;" parent="IGC7cP5TgzlPBevFt7c1-140" vertex="1">
          <mxGeometry y="60" width="260" height="34" as="geometry" />
        </mxCell>
        <mxCell id="IGC7cP5TgzlPBevFt7c1-145" value="#3 ID" style="text;strokeColor=#432D57;fillColor=#76608a;align=left;verticalAlign=top;spacingLeft=4;spacingRight=4;overflow=hidden;rotatable=0;points=[[0,0.5],[1,0.5]];portConstraint=eastwest;rounded=0;shadow=0;glass=0;sketch=0;fontFamily=Times New Roman;fontSize=17;fontColor=#ffffff;" parent="IGC7cP5TgzlPBevFt7c1-140" vertex="1">
          <mxGeometry y="94" width="260" height="34" as="geometry" />
        </mxCell>
        <mxCell id="IGC7cP5TgzlPBevFt7c1-146" value="#4 Номеру паспорта" style="text;strokeColor=#432D57;fillColor=#76608a;align=left;verticalAlign=top;spacingLeft=4;spacingRight=4;overflow=hidden;rotatable=0;points=[[0,0.5],[1,0.5]];portConstraint=eastwest;rounded=0;shadow=0;glass=0;sketch=0;fontFamily=Times New Roman;fontSize=17;fontColor=#ffffff;" parent="IGC7cP5TgzlPBevFt7c1-140" vertex="1">
          <mxGeometry y="128" width="260" height="34" as="geometry" />
        </mxCell>
        <mxCell id="IGC7cP5TgzlPBevFt7c1-147" value="#0 Назад в &quot;База читателей&quot;" style="text;strokeColor=#432D57;fillColor=#76608a;align=left;verticalAlign=top;spacingLeft=4;spacingRight=4;overflow=hidden;rotatable=0;points=[[0,0.5],[1,0.5]];portConstraint=eastwest;rounded=0;shadow=0;glass=0;sketch=0;fontFamily=Times New Roman;fontSize=17;fontColor=#ffffff;" parent="IGC7cP5TgzlPBevFt7c1-140" vertex="1">
          <mxGeometry y="162" width="260" height="34" as="geometry" />
        </mxCell>
        <mxCell id="IGC7cP5TgzlPBevFt7c1-148" style="edgeStyle=orthogonalEdgeStyle;curved=0;rounded=1;sketch=0;orthogonalLoop=1;jettySize=auto;html=1;entryX=0;entryY=0;entryDx=0;entryDy=0;fontFamily=Times New Roman;fontSize=17;" parent="1" source="IGC7cP5TgzlPBevFt7c1-117" target="IGC7cP5TgzlPBevFt7c1-140" edge="1">
          <mxGeometry relative="1" as="geometry">
            <Array as="points">
              <mxPoint x="1030" y="149" />
              <mxPoint x="1030" y="380" />
            </Array>
          </mxGeometry>
        </mxCell>
        <mxCell id="IGC7cP5TgzlPBevFt7c1-149" value="Редактирование информации по читателю" style="swimlane;fontStyle=1;align=center;verticalAlign=top;childLayout=stackLayout;horizontal=1;startSize=26;horizontalStack=0;resizeParent=1;resizeParentMax=0;resizeLast=0;collapsible=1;marginBottom=0;rounded=0;shadow=0;glass=0;sketch=0;fontFamily=Times New Roman;fontSize=17;strokeColor=#432D57;strokeWidth=1;fillColor=#76608a;gradientDirection=east;fontColor=#ffffff;" parent="1" vertex="1">
          <mxGeometry x="1025" y="600" width="400" height="128" as="geometry" />
        </mxCell>
        <mxCell id="IGC7cP5TgzlPBevFt7c1-150" value="#1 Редактировать всю информацию" style="text;strokeColor=#432D57;fillColor=#76608a;align=left;verticalAlign=top;spacingLeft=4;spacingRight=4;overflow=hidden;rotatable=0;points=[[0,0.5],[1,0.5]];portConstraint=eastwest;rounded=0;shadow=0;glass=0;sketch=0;fontFamily=Times New Roman;fontSize=17;fontColor=#ffffff;" parent="IGC7cP5TgzlPBevFt7c1-149" vertex="1">
          <mxGeometry y="26" width="400" height="34" as="geometry" />
        </mxCell>
        <mxCell id="IGC7cP5TgzlPBevFt7c1-154" value="#2 Выбрать информацию для редактирования" style="text;strokeColor=#432D57;fillColor=#76608a;align=left;verticalAlign=top;spacingLeft=4;spacingRight=4;overflow=hidden;rotatable=0;points=[[0,0.5],[1,0.5]];portConstraint=eastwest;rounded=0;shadow=0;glass=0;sketch=0;fontFamily=Times New Roman;fontSize=17;fontColor=#ffffff;" parent="IGC7cP5TgzlPBevFt7c1-149" vertex="1">
          <mxGeometry y="60" width="400" height="34" as="geometry" />
        </mxCell>
        <mxCell id="IGC7cP5TgzlPBevFt7c1-155" value="#0 Назад в &quot;База читателей&quot;" style="text;strokeColor=#432D57;fillColor=#76608a;align=left;verticalAlign=top;spacingLeft=4;spacingRight=4;overflow=hidden;rotatable=0;points=[[0,0.5],[1,0.5]];portConstraint=eastwest;rounded=0;shadow=0;glass=0;sketch=0;fontFamily=Times New Roman;fontSize=17;fontColor=#ffffff;" parent="IGC7cP5TgzlPBevFt7c1-149" vertex="1">
          <mxGeometry y="94" width="400" height="34" as="geometry" />
        </mxCell>
        <mxCell id="IGC7cP5TgzlPBevFt7c1-156" style="edgeStyle=orthogonalEdgeStyle;curved=0;rounded=1;sketch=0;orthogonalLoop=1;jettySize=auto;html=1;entryX=0;entryY=0;entryDx=0;entryDy=0;fontFamily=Times New Roman;fontSize=17;" parent="1" source="IGC7cP5TgzlPBevFt7c1-119" target="IGC7cP5TgzlPBevFt7c1-149" edge="1">
          <mxGeometry relative="1" as="geometry">
            <Array as="points">
              <mxPoint x="980" y="224" />
              <mxPoint x="980" y="600" />
            </Array>
          </mxGeometry>
        </mxCell>
        <mxCell id="IGC7cP5TgzlPBevFt7c1-157" value="Структура &quot;Читатель&quot; стостоит из таких данных" style="swimlane;fontStyle=0;childLayout=stackLayout;horizontal=1;startSize=26;fillColor=#dae8fc;horizontalStack=0;resizeParent=1;resizeParentMax=0;resizeLast=0;collapsible=1;marginBottom=0;rounded=0;shadow=0;glass=0;sketch=0;fontFamily=Times New Roman;fontSize=17;strokeColor=#6c8ebf;strokeWidth=1;swimlaneFillColor=default;gradientColor=#7ea6e0;" parent="1" vertex="1">
          <mxGeometry x="730" y="-262" width="465" height="196" as="geometry" />
        </mxCell>
        <mxCell id="IGC7cP5TgzlPBevFt7c1-159" value="- ФИО" style="text;strokeColor=#6c8ebf;fillColor=#dae8fc;align=left;verticalAlign=top;spacingLeft=4;spacingRight=4;overflow=hidden;rotatable=0;points=[[0,0.5],[1,0.5]];portConstraint=eastwest;rounded=0;shadow=0;glass=0;sketch=0;fontFamily=Times New Roman;fontSize=17;labelBorderColor=none;gradientColor=#7ea6e0;" parent="IGC7cP5TgzlPBevFt7c1-157" vertex="1">
          <mxGeometry y="26" width="465" height="34" as="geometry" />
        </mxCell>
        <mxCell id="IGC7cP5TgzlPBevFt7c1-161" value="- Дата рождения" style="text;strokeColor=#6c8ebf;fillColor=#dae8fc;align=left;verticalAlign=top;spacingLeft=4;spacingRight=4;overflow=hidden;rotatable=0;points=[[0,0.5],[1,0.5]];portConstraint=eastwest;rounded=0;shadow=0;glass=0;sketch=0;fontFamily=Times New Roman;fontSize=17;labelBorderColor=none;gradientColor=#7ea6e0;" parent="IGC7cP5TgzlPBevFt7c1-157" vertex="1">
          <mxGeometry y="60" width="465" height="34" as="geometry" />
        </mxCell>
        <mxCell id="IGC7cP5TgzlPBevFt7c1-162" value="- Номер паспорта" style="text;strokeColor=#6c8ebf;fillColor=#dae8fc;align=left;verticalAlign=top;spacingLeft=4;spacingRight=4;overflow=hidden;rotatable=0;points=[[0,0.5],[1,0.5]];portConstraint=eastwest;rounded=0;shadow=0;glass=0;sketch=0;fontFamily=Times New Roman;fontSize=17;labelBorderColor=none;gradientColor=#7ea6e0;" parent="IGC7cP5TgzlPBevFt7c1-157" vertex="1">
          <mxGeometry y="94" width="465" height="34" as="geometry" />
        </mxCell>
        <mxCell id="IGC7cP5TgzlPBevFt7c1-163" value="- ID номер читателя" style="text;strokeColor=#6c8ebf;fillColor=#dae8fc;align=left;verticalAlign=top;spacingLeft=4;spacingRight=4;overflow=hidden;rotatable=0;points=[[0,0.5],[1,0.5]];portConstraint=eastwest;rounded=0;shadow=0;glass=0;sketch=0;fontFamily=Times New Roman;fontSize=17;labelBorderColor=none;gradientColor=#7ea6e0;" parent="IGC7cP5TgzlPBevFt7c1-157" vertex="1">
          <mxGeometry y="128" width="465" height="34" as="geometry" />
        </mxCell>
        <mxCell id="IGC7cP5TgzlPBevFt7c1-164" value="- Количество прочитанных книг" style="text;strokeColor=#6c8ebf;fillColor=#dae8fc;align=left;verticalAlign=top;spacingLeft=4;spacingRight=4;overflow=hidden;rotatable=0;points=[[0,0.5],[1,0.5]];portConstraint=eastwest;rounded=0;shadow=0;glass=0;sketch=0;fontFamily=Times New Roman;fontSize=17;labelBorderColor=none;gradientColor=#7ea6e0;" parent="IGC7cP5TgzlPBevFt7c1-157" vertex="1">
          <mxGeometry y="162" width="465" height="34" as="geometry" />
        </mxCell>
        <mxCell id="IGC7cP5TgzlPBevFt7c1-167" value="" style="endArrow=block;startArrow=block;endFill=1;startFill=1;html=1;rounded=1;sketch=0;fontFamily=Times New Roman;fontSize=17;curved=0;exitX=1;exitY=0.5;exitDx=0;exitDy=0;entryX=0;entryY=0.5;entryDx=0;entryDy=0;" parent="1" source="IGC7cP5TgzlPBevFt7c1-105" target="IGC7cP5TgzlPBevFt7c1-164" edge="1">
          <mxGeometry width="160" relative="1" as="geometry">
            <mxPoint x="140" y="-10" as="sourcePoint" />
            <mxPoint x="680" y="-20" as="targetPoint" />
            <Array as="points">
              <mxPoint x="210" />
              <mxPoint x="390" />
              <mxPoint x="640" />
            </Array>
          </mxGeometry>
        </mxCell>
      </root>
    </mxGraphModel>
  </diagram>
</mxfile>
